HIERARCHY
ROOT hip
{
	OFFSET 0.000000 0.000000 0.000000 
	CHANNELS 6 Xposition Yposition Zposition Xrotation Zrotation Yrotation
	JOINT abdomen
	{
		OFFSET 0.000000 3.402643 0.000000 
		CHANNELS 3 Xrotation Zrotation Yrotation
		JOINT chest
		{
			OFFSET 0.000000 8.438565 -0.680529 
			CHANNELS 3 Xrotation Zrotation Yrotation
			JOINT neck
			{
				OFFSET 0.000000 10.207942 -0.272212 
				CHANNELS 3 Xrotation Zrotation Yrotation
				JOINT head
				{
					OFFSET 0.000000 3.130431 0.000000 
					CHANNELS 3 Xrotation Zrotation Yrotation
					End Site
					{
						OFFSET 0.000000 3.130435 0.000000 
					}
				}
			}
			JOINT lCollar
			{
				OFFSET 3.470700 6.669187 -0.816635 
				CHANNELS 3 Yrotation Zrotation Xrotation
				JOINT lShldr
				{
					OFFSET 3.198488 0.000000 0.000000 
					CHANNELS 3 Zrotation Yrotation Xrotation
					JOINT lForeArm
					{
						OFFSET 10.139888 0.000000 0.000000 
						CHANNELS 3 Yrotation Zrotation Xrotation
						JOINT lHand
						{
							OFFSET 8.370511 0.000000 0.000000 
							CHANNELS 3 Zrotation Yrotation Xrotation
							End Site
							{
								OFFSET 4.083176 0.000000 0.000000 
							}
						}
					}
				}
			}
			JOINT rCollar
			{
				OFFSET -3.470700 6.669187 -0.816635 
				CHANNELS 3 Yrotation Zrotation Xrotation
				JOINT rShldr
				{
					OFFSET -3.198488 0.000000 0.000000 
					CHANNELS 3 Zrotation Yrotation Xrotation
					JOINT rForeArm
					{
						OFFSET -10.139888 0.000000 0.000000 
						CHANNELS 3 Yrotation Zrotation Xrotation
						JOINT rHand
						{
							OFFSET -8.370511 0.000000 0.000000 
							CHANNELS 3 Zrotation Yrotation Xrotation
							End Site
							{
								OFFSET -4.083176 0.000000 0.000000 
							}
						}
					}
				}
			}
		}
	}
	JOINT lThigh
	{
		OFFSET 5.308129 -1.633274 1.361059 
		CHANNELS 3 Xrotation Zrotation Yrotation
		JOINT lShin
		{
			OFFSET -2.041588 -20.007561 0.000000 
			CHANNELS 3 Xrotation Zrotation Yrotation
			JOINT lFoot
			{
				OFFSET 0.000000 -19.190928 -1.224953 
				CHANNELS 3 Xrotation Yrotation Zrotation
				End Site
				{
					OFFSET 0.000000 -2.449906 4.627600 
				}
			}
		}
	}
	JOINT rThigh
	{
		OFFSET -5.308129 -1.633274 1.361059 
		CHANNELS 3 Xrotation Zrotation Yrotation
		JOINT rShin
		{
			OFFSET 2.041588 -20.007561 0.000000 
			CHANNELS 3 Xrotation Zrotation Yrotation
			JOINT rFoot
			{
				OFFSET 0.000000 -19.190928 -1.224953 
				CHANNELS 3 Xrotation Yrotation Zrotation
				End Site
				{
					OFFSET 0.000000 -2.449906 4.627600 
				}
			}
		}
	}
}
MOTION
Frames: 13
Frame Time: 0.033333
-44.811665 29.081587 43.077522 -2.366892 -12.079832 -90.149689 0.000000 0.000000 0.000000 21.935627 0.760933 1.615127 10.019648 -0.008613 0.376832 12.543568 2.737665 -1.383529 6.720951 -17.440149 25.000000 52.848389 -81.945427 -85.184563 -38.033905 -13.548069 3.531997 37.818546 -2.999022 -9.821939 -3.704408 20.550888 25.000000 -27.940159 69.362015 -56.769897 36.167625 8.329175 3.181553 -26.503332 19.915543 13.800835 -60.109444 22.953743 11.900826 95.300362 4.755098 9.530006 -20.019840 0.965424 -5.390992 -63.942051 -26.092693 1.206430 93.482796 -5.097017 10.203417 -18.652756 -1.095548 6.793433 
-44.817707 29.098330 43.083557 -2.557006 -12.117188 -90.128693 0.000000 0.000000 0.000000 21.926323 0.842518 1.696652 10.057991 -0.105120 0.753731 12.503906 2.562418 -1.524310 7.467470 -17.736237 25.000000 46.481213 -81.339272 -75.936516 -39.638111 -13.053029 3.522804 38.507324 -4.528532 -8.187067 -3.418410 20.383581 25.000000 -27.468374 69.225494 -56.519382 36.208225 8.247559 3.173755 -26.475311 19.604158 14.354283 -59.922916 22.884712 11.949954 95.237167 4.735980 9.402622 -20.025814 0.992265 -5.487060 -63.985241 -26.139185 1.350515 93.485794 -5.087863 10.404346 -18.670431 -1.094233 6.672223 
-44.814434 29.090523 43.082054 -2.737285 -12.164253 -90.019104 0.000000 0.000000 0.000000 21.907236 0.915117 1.715754 9.997686 -0.118227 1.078479 12.885309 2.609893 -1.630593 8.183136 -17.775423 25.000000 40.672546 -81.023308 -68.293022 -40.657963 -12.601805 3.506047 38.629154 -8.585611 -4.054149 -3.140529 20.420794 25.000000 -27.177296 68.946045 -56.227531 36.292042 8.199285 3.171085 -26.580587 19.674170 14.253941 -59.865768 22.827101 12.075650 95.139435 4.745777 9.412623 -19.878220 0.986202 -5.500275 -64.078407 -26.414610 1.258354 93.561195 -5.057920 10.518627 -18.646698 -1.037456 6.381703 
-44.805626 29.093170 43.049080 -2.635947 -12.018891 -90.087372 0.000000 0.000000 0.000000 21.936834 0.960222 1.880950 9.990221 -0.101844 0.976381 12.064507 2.739143 -1.611469 11.643599 -22.240362 25.000000 49.751728 -79.068024 -70.749229 -40.016396 -14.002753 3.581804 38.722618 -11.684801 -0.751050 -3.245181 19.972382 25.000000 -26.216600 69.054916 -55.590240 36.947330 7.855397 3.162010 -26.552879 19.254957 13.784889 -60.041306 22.934353 12.017806 95.125381 4.785433 9.579248 -19.825569 0.998009 -5.582078 -64.157066 -26.278294 1.196741 93.547073 -5.056879 10.366130 -18.642855 -1.041748 6.446004 
-44.808899 29.130671 43.041782 -2.907639 -12.211294 -89.796165 0.000000 0.000000 0.000000 21.965954 0.932854 1.899777 10.375682 0.025233 1.358545 11.722712 2.886350 -1.932330 9.743471 -18.810507 25.000000 36.116295 -80.119949 -59.441456 -41.333351 -12.625170 3.525817 39.178253 -15.135962 3.249135 -2.875525 20.186100 25.000000 -26.309273 68.315407 -55.351974 36.934223 7.917790 3.166510 -26.685810 18.303526 12.908774 -59.666813 22.616510 12.022644 94.978828 4.726785 9.293866 -19.805622 1.008872 -5.597806 -63.982651 -26.532751 1.313931 93.498459 -5.066844 10.347225 -18.652895 -1.021439 6.424469 
-44.814812 29.124750 43.049458 -2.957268 -12.181507 -89.484573 0.000000 0.000000 0.000000 21.946480 0.942040 1.951938 10.315454 0.221917 1.191142 11.556211 2.779514 -2.043885 10.403629 -19.350260 25.000000 34.538433 -80.453018 -57.143539 -41.693378 -12.543924 3.516328 38.756779 -17.298868 4.773336 -3.041287 20.094280 25.000000 -25.380779 67.858650 -54.293350 37.786766 7.570307 3.159595 -26.741482 17.926676 12.114655 -59.735310 22.411673 12.076912 95.025314 4.628321 9.152172 -19.904676 0.930487 -5.320940 -64.000114 -26.873672 1.333259 93.403160 -5.086892 10.252831 -18.534714 -1.053827 6.615862 
-44.740440 29.166285 43.013088 -3.306790 -12.167811 -89.274239 0.000000 0.000000 0.000000 22.015154 0.986854 1.961601 10.369045 -0.245993 1.391064 11.253013 2.731457 -2.236608 9.774139 -18.018017 25.000000 31.060408 -80.286667 -54.340549 -42.515846 -11.883670 3.495851 39.820160 -17.944328 4.703338 -2.838160 20.494562 25.000000 -25.754778 67.102226 -54.296871 38.431953 7.318119 3.150313 -26.902395 16.492838 11.177520 -59.628891 21.738285 11.546392 94.762291 4.697579 9.475985 -19.574585 1.073548 -6.115748 -64.068199 -27.039400 1.434571 93.458321 -5.086085 10.356529 -18.635063 -1.017144 6.393290 
-44.791912 29.161877 43.017868 -3.368718 -12.323073 -89.272469 0.000000 0.000000 0.000000 22.054415 1.013735 2.129526 10.377395 -0.345577 1.596682 10.911198 2.917558 -2.391899 10.152264 -18.116875 25.000000 29.507721 -80.763504 -53.293053 -42.198105 -12.020257 3.493514 40.897781 -19.049231 4.416609 -3.037497 21.389181 25.000000 -27.376905 65.923424 -53.945282 38.831947 7.547416 3.170352 -29.498150 14.225343 4.695130 -59.371166 22.116760 12.011726 94.754517 4.609622 9.207640 -19.663410 1.008034 -5.697404 -63.960781 -27.068771 1.436830 93.536644 -5.086040 10.355347 -18.690069 -1.023732 6.301337 
-44.755791 29.180754 43.020893 -3.536932 -12.194224 -89.096123 0.000000 0.000000 0.000000 22.093416 1.004406 2.146075 10.158408 -0.560099 1.891046 10.774811 3.171554 -2.555239 10.407062 -18.036089 25.000000 28.027124 -81.351784 -52.733829 -41.793064 -12.022604 3.486346 41.303741 -18.975586 4.589223 -2.912538 21.766222 25.000000 -27.966555 64.846169 -54.287663 39.486275 7.294566 3.163482 -30.211386 12.324798 1.038501 -59.412163 21.727478 11.766209 94.706718 4.599778 9.226232 -19.641041 1.060184 -5.968075 -64.075729 -27.273132 1.582066 93.533119 -5.048503 10.490983 -18.739525 -1.029967 6.298390 
-44.809151 29.154581 43.046185 -3.597803 -12.261678 -89.030731 0.000000 0.000000 0.000000 22.162319 1.076272 2.215809 9.835519 -0.645097 1.868411 10.637318 2.869288 -2.680992 10.515197 -17.908180 25.000000 23.657906 -81.950699 -49.369068 -42.260918 -11.612522 3.467010 41.103882 -18.629761 4.541373 -2.749997 21.683636 25.000000 -28.063427 64.034264 -54.879822 39.654415 7.113791 3.161538 -30.941870 11.196783 -1.716090 -59.299976 22.143976 12.387327 94.769104 4.491911 8.746080 -19.789934 0.935153 -5.272306 -64.124809 -27.458662 1.442103 93.593773 -5.126983 10.075690 -18.649122 -1.026156 6.332706 
-44.799709 29.140358 43.054996 -3.644427 -12.017374 -88.937866 0.000000 0.000000 0.000000 22.025581 1.077315 2.310896 9.619300 -0.730076 2.020008 10.480968 2.928118 -2.823608 10.736073 -17.901247 25.000000 19.704369 -82.782120 -46.382957 -41.971283 -11.632617 3.475490 41.920708 -19.364441 4.044987 -2.507859 21.862173 25.000000 -27.573195 63.079029 -54.929642 39.870644 6.820135 3.139599 -32.191147 10.388321 -1.449667 -59.608654 22.060337 12.437745 94.717461 4.531219 8.951720 -19.661366 0.945344 -5.309617 -64.425163 -27.555168 1.339507 93.667816 -5.126183 9.922226 -18.643446 -1.003182 6.245689 
-44.812168 29.153702 43.060032 -3.553803 -11.960044 -88.795731 0.000000 0.000000 0.000000 22.075062 1.158391 2.432736 9.328065 -0.738749 2.103355 10.383169 2.918516 -3.033980 10.900249 -17.786537 25.000000 17.278101 -83.551643 -44.797573 -41.884632 -11.548302 3.472188 42.108559 -20.093691 5.202768 -2.605102 22.526958 25.000000 -28.478771 61.850033 -56.146923 39.428055 6.735822 3.135833 -32.218201 10.013687 -2.197635 -59.682789 22.037895 12.396451 94.753128 4.589197 9.158525 -19.708351 0.950543 -5.351714 -64.295242 -27.655655 1.229825 93.718765 -5.107012 10.160944 -18.832293 -1.022118 6.214913 
-44.846275 29.157349 43.071602 -3.732261 -11.870020 -88.772644 0.000000 0.000000 0.000000 22.045115 1.077167 2.447982 9.063818 -0.990259 2.251896 10.216994 2.957813 -3.158516 10.895387 -17.739414 25.000000 17.971939 -83.924202 -45.753429 -41.217598 -11.873657 3.479369 42.394283 -20.912708 5.668708 -2.293410 22.280222 25.000000 -27.212492 61.304745 -56.159206 39.725952 6.354033 3.115529 -30.635649 10.604526 -0.636779 -59.610558 22.025454 12.545135 94.764244 4.511867 8.882015 -19.818930 0.938955 -5.281629 -64.514954 -27.809990 1.383715 93.648232 -5.126161 9.922588 -18.680984 -1.023697 6.290086 
